<svg aria-hidden="true" style="position: absolute; width: 0; height: 0; overflow: hidden;" version="1.1" xmlns="http://www.w3.org/2000/svg" xmlns:xlink="http://www.w3.org/1999/xlink">
<defs>

<symbol id="icon-search" viewBox="0 0 32 32">
<path d="M15 7c-4.418 0-8 3.582-8 8s3.582 8 8 8c4.418 0 8-3.582 8-8s-3.582-8-8-8zM4 15c0-6.075 4.925-11 11-11s11 4.925 11 11c0 2.497-0.832 4.799-2.233 6.645l5.794 5.794c0.586 0.586 0.586 1.536 0 2.121s-1.536 0.586-2.121 0l-5.794-5.794c-1.846 1.402-4.149 2.233-6.645 2.233-6.075 0-11-4.925-11-11z"></path>
</symbol>

<symbol id="icon-cart" viewBox="0 0 26 32">
<path d="M3.2 32c-0.88 0-1.633-0.313-2.26-0.94s-0.94-1.38-0.94-2.26v-19.2c0-0.88 0.313-1.633 0.94-2.26s1.38-0.94 2.26-0.94h3.2c0-1.76 0.627-3.267 1.88-4.52s2.76-1.88 4.52-1.88c1.76 0 3.267 0.627 4.52 1.88s1.88 2.76 1.88 4.52h3.2c0.88 0 1.633 0.313 2.26 0.94s0.94 1.38 0.94 2.26v19.2c0 0.88-0.313 1.633-0.94 2.26s-1.38 0.94-2.26 0.94h-19.2zM3.2 28.8h19.2v-19.2h-3.2v3.2c0 0.453-0.153 0.833-0.46 1.14s-0.687 0.46-1.14 0.46c-0.453 0-0.833-0.153-1.14-0.46s-0.46-0.687-0.46-1.14v-3.2h-6.4v3.2c0 0.453-0.153 0.833-0.46 1.14s-0.687 0.46-1.14 0.46c-0.453 0-0.833-0.153-1.14-0.46s-0.46-0.687-0.46-1.14v-3.2h-3.2v19.2zM9.6 6.4h6.4c0-0.88-0.313-1.633-0.94-2.26s-1.38-0.94-2.26-0.94c-0.88 0-1.633 0.313-2.26 0.94s-0.94 1.38-0.94 2.26z"></path>
</symbol>

<symbol id="icon-burger-menu" viewBox="0 0 32 32">
<path d="M3.969 7.966c0-0.736 0.597-1.333 1.333-1.333h21.333c0.736 0 1.333 0.597 1.333 1.333s-0.597 1.333-1.333 1.333h-21.333c-0.736 0-1.333-0.597-1.333-1.333zM3.969 15.966c0-0.736 0.597-1.333 1.333-1.333h21.333c0.736 0 1.333 0.597 1.333 1.333s-0.597 1.333-1.333 1.333h-21.333c-0.736 0-1.333-0.597-1.333-1.333zM3.969 23.966c0-0.736 0.597-1.333 1.333-1.333h21.333c0.736 0 1.333 0.597 1.333 1.333s-0.597 1.333-1.333 1.333h-21.333c-0.736 0-1.333-0.597-1.333-1.333z"></path>
</symbol>

<symbol id="icon-material-symbols_menu-sharp-1" viewBox="0 0 32 32">
<path fill="#c9c9c9" style="fill: var(--color1, #c9c9c9)" d="M4 24v-2.667h24v2.667h-24zM4 17.333v-2.667h24v2.667h-24zM4 10.667v-2.667h24v2.667h-24z"></path>
</symbol>

<symbol id="icon-cross1" viewBox="0 0 32 32">
<path d="M6.555 5.697c-0.484-0.484-1.269-0.484-1.754 0s-0.484 1.269 0 1.754l8.33 8.33-8.769 8.769c-0.484 0.484-0.484 1.269 0 1.754s1.269 0.484 1.754 0l8.769-8.769 8.331 8.331c0.484 0.484 1.269 0.484 1.754 0s0.484-1.27 0-1.754l-8.33-8.33 7.892-7.892c0.484-0.484 0.484-1.269 0-1.754s-1.27-0.484-1.754 0l-7.892 7.892-8.33-8.33z"></path>
</symbol>

<symbol id="icon-cross" viewBox="0 0 32 32">
<path d="M6.97 6.97c0.405-0.405 1.062-0.405 1.467 0l7.563 7.563 7.563-7.563c0.405-0.405 1.062-0.405 1.467 0s0.405 1.062 0 1.467l-7.563 7.563 7.563 7.563c0.405 0.405 0.405 1.062 0 1.467s-1.062 0.405-1.467 0l-7.563-7.563-7.563 7.563c-0.405 0.405-1.062 0.405-1.467 0s-0.405-1.062 0-1.467l7.563-7.563-7.563-7.563c-0.405-0.405-0.405-1.062 0-1.467z"></path>
</symbol>

<symbol id="icon-next" viewBox="0 0 62 32">
<path fill="#4c4b4b" style="fill: var(--color1, #4c4b4b)" d="M61.414 17.414c0.781-0.781 0.781-2.047 0-2.828l-12.728-12.728c-0.781-0.781-2.047-0.781-2.828 0s-0.781 2.047 0 2.828l11.314 11.314-11.314 11.314c-0.781 0.781-0.781 2.047 0 2.828s2.047 0.781 2.828 0l12.728-12.728zM0 18h60v-4h-60v4z"></path>
</symbol>

<symbol id="icon-prev" viewBox="0 0 62 32">
<path fill="#4c4b4b" style="fill: var(--color1, #4c4b4b)" d="M0.586 14.586c-0.781 0.781-0.781 2.047 0 2.828l12.728 12.728c0.781 0.781 2.047 0.781 2.828 0s0.781-2.047 0-2.828l-11.314-11.314 11.314-11.314c0.781-0.781 0.781-2.047 0-2.828s-2.047-0.781-2.828 0l-12.728 12.728zM62 14h-60v4h60v-4z"></path>
</symbol>


<symbol id="icon-next-page" viewBox="0 0 32 32">
<path fill="#9d9a97" style="fill: var(--color1, #9d9a97)" d="M12.178 9.506c-0.114 0.113-0.178 0.264-0.178 0.422s0.064 0.309 0.178 0.422l6.378 6.317-6.378 6.315c-0.114 0.113-0.178 0.264-0.178 0.422s0.064 0.309 0.178 0.422c0.056 0.055 0.122 0.099 0.195 0.129s0.152 0.045 0.232 0.045c0.080 0 0.158-0.015 0.232-0.045s0.14-0.074 0.195-0.129l6.783-6.719c0.119-0.118 0.186-0.276 0.186-0.441s-0.067-0.323-0.186-0.441l-6.783-6.719c-0.056-0.055-0.122-0.099-0.195-0.129s-0.152-0.045-0.232-0.045c-0.080 0-0.158 0.015-0.232 0.045s-0.14 0.074-0.195 0.129v-0.001z"></path>
</symbol>

<symbol id="icon-prev-page" viewBox="0 0 32 32">
<path fill="#9d9a97" style="fill: var(--color1, #9d9a97)" d="M19.822 9.506c0.114 0.113 0.178 0.264 0.178 0.422s-0.064 0.309-0.178 0.422l-6.378 6.317 6.378 6.315c0.114 0.113 0.178 0.264 0.178 0.422s-0.064 0.309-0.178 0.422c-0.055 0.055-0.122 0.099-0.195 0.129s-0.152 0.045-0.232 0.045c-0.079 0-0.158-0.015-0.232-0.045s-0.14-0.074-0.195-0.129l-6.783-6.719c-0.119-0.118-0.186-0.276-0.186-0.441s0.067-0.323 0.186-0.441l6.783-6.719c0.055-0.055 0.122-0.099 0.195-0.129s0.152-0.045 0.232-0.045c0.080 0 0.158 0.015 0.232 0.045s0.14 0.074 0.195 0.129v-0.001z"></path>
</symbol>

<symbol id="icon-fe_facebook" viewBox="0 0 32 32">
<path d="M18.853 30.667v-13.38h4.324l0.648-5.214h-4.971v-3.329c0-1.511 0.402-2.539 2.487-2.539l2.659-0.001v-4.664c-1.287-0.141-2.58-0.21-3.874-0.205-3.834 0-6.458 2.43-6.458 6.893v3.846h-4.335v5.214h4.335v13.38h5.184z"></path>
</symbol>


<symbol id="icon-circum_instagram" viewBox="0 0 32 32">
<path d="M24.582 27.917h-17.165c-0.884 0-1.732-0.351-2.357-0.976s-0.976-1.473-0.976-2.357v-17.165c0-0.884 0.351-1.732 0.976-2.357s1.473-0.976 2.357-0.976h17.165c0.884 0 1.732 0.351 2.357 0.976s0.976 1.473 0.976 2.357v17.165c0 0.884-0.351 1.732-0.976 2.357s-1.473 0.976-2.357 0.976zM7.417 5.418c-0.53 0-1.039 0.211-1.414 0.586s-0.586 0.884-0.586 1.414v17.165c0 0.53 0.211 1.039 0.586 1.414s0.884 0.586 1.414 0.586h17.165c0.53 0 1.039-0.211 1.414-0.586s0.586-0.884 0.586-1.414v-17.165c0-0.53-0.211-1.039-0.586-1.414s-0.884-0.586-1.414-0.586h-17.165z"></path>
<path d="M15.999 22.126c-1.211-0.001-2.395-0.362-3.402-1.036s-1.791-1.632-2.254-2.751-0.583-2.351-0.346-3.539c0.237-1.188 0.821-2.279 1.679-3.135s1.949-1.439 3.137-1.675 2.42-0.114 3.539 0.35c1.119 0.464 2.075 1.25 2.748 2.257s1.032 2.192 1.031 3.404c-0.002 1.625-0.649 3.183-1.799 4.332s-2.709 1.794-4.334 1.794zM15.999 11.201c-0.947 0.001-1.873 0.283-2.66 0.811s-1.401 1.276-1.762 2.152c-0.362 0.876-0.456 1.839-0.271 2.768s0.642 1.783 1.311 2.453c0.67 0.67 1.524 1.126 2.453 1.311s1.892 0.091 2.768-0.271c0.876-0.362 1.624-0.975 2.152-1.763s0.809-1.713 0.811-2.66c0-1.273-0.506-2.494-1.406-3.394s-2.121-1.406-3.394-1.406z"></path>
<path d="M22.933 10.541c0.792 0 1.433-0.642 1.433-1.433s-0.642-1.433-1.433-1.433c-0.792 0-1.433 0.642-1.433 1.433s0.642 1.433 1.433 1.433z"></path>
</symbol>

<symbol id="icon-instagram" viewBox="0 0 32 32">
<path d="M16 2.881c4.275 0 4.781 0.019 6.462 0.094 1.563 0.069 2.406 0.331 2.969 0.55 0.744 0.288 1.281 0.638 1.837 1.194 0.563 0.563 0.906 1.094 1.2 1.838 0.219 0.563 0.481 1.412 0.55 2.969 0.075 1.688 0.094 2.194 0.094 6.463s-0.019 4.781-0.094 6.463c-0.069 1.563-0.331 2.406-0.55 2.969-0.288 0.744-0.637 1.281-1.194 1.837-0.563 0.563-1.094 0.906-1.837 1.2-0.563 0.219-1.413 0.481-2.969 0.55-1.688 0.075-2.194 0.094-6.463 0.094s-4.781-0.019-6.463-0.094c-1.563-0.069-2.406-0.331-2.969-0.55-0.744-0.288-1.281-0.637-1.838-1.194-0.563-0.563-0.906-1.094-1.2-1.837-0.219-0.563-0.481-1.413-0.55-2.969-0.075-1.688-0.094-2.194-0.094-6.463s0.019-4.781 0.094-6.463c0.069-1.563 0.331-2.406 0.55-2.969 0.288-0.744 0.638-1.281 1.194-1.838 0.563-0.563 1.094-0.906 1.838-1.2 0.563-0.219 1.412-0.481 2.969-0.55 1.681-0.075 2.188-0.094 6.463-0.094zM16 0c-4.344 0-4.887 0.019-6.594 0.094-1.7 0.075-2.869 0.35-3.881 0.744-1.056 0.412-1.95 0.956-2.837 1.85-0.894 0.888-1.438 1.781-1.85 2.831-0.394 1.019-0.669 2.181-0.744 3.881-0.075 1.713-0.094 2.256-0.094 6.6s0.019 4.887 0.094 6.594c0.075 1.7 0.35 2.869 0.744 3.881 0.413 1.056 0.956 1.95 1.85 2.837 0.887 0.887 1.781 1.438 2.831 1.844 1.019 0.394 2.181 0.669 3.881 0.744 1.706 0.075 2.25 0.094 6.594 0.094s4.888-0.019 6.594-0.094c1.7-0.075 2.869-0.35 3.881-0.744 1.050-0.406 1.944-0.956 2.831-1.844s1.438-1.781 1.844-2.831c0.394-1.019 0.669-2.181 0.744-3.881 0.075-1.706 0.094-2.25 0.094-6.594s-0.019-4.887-0.094-6.594c-0.075-1.7-0.35-2.869-0.744-3.881-0.394-1.063-0.938-1.956-1.831-2.844-0.887-0.887-1.781-1.438-2.831-1.844-1.019-0.394-2.181-0.669-3.881-0.744-1.712-0.081-2.256-0.1-6.6-0.1v0z"></path>
<path d="M16 7.781c-4.537 0-8.219 3.681-8.219 8.219s3.681 8.219 8.219 8.219 8.219-3.681 8.219-8.219c0-4.537-3.681-8.219-8.219-8.219zM16 21.331c-2.944 0-5.331-2.387-5.331-5.331s2.387-5.331 5.331-5.331c2.944 0 5.331 2.387 5.331 5.331s-2.387 5.331-5.331 5.331z"></path>
<path d="M26.462 7.456c0 1.060-0.859 1.919-1.919 1.919s-1.919-0.859-1.919-1.919c0-1.060 0.859-1.919 1.919-1.919s1.919 0.859 1.919 1.919z"></path>
</symbol>


<symbol id="icon-vector-13" viewBox="0 0 54 32">
<path stroke-linejoin="miter" stroke-linecap="butt" stroke-miterlimit="4" stroke-width="3.2" d="M3.2 3.2l24 25.6 24-25.6"></path>
</symbol>
<symbol id="icon-vector-14" viewBox="0 0 59 32">
<path stroke-linejoin="round" stroke-linecap="round" stroke-miterlimit="4" stroke-width="2.6667" d="M56 29.333l-26.667-26.667-26.667 26.667"></path>
</symbol>

<symbol id="icon-minus" viewBox="0 0 75 32">
<path d="M4.917 5.792h62.25v24.375h-62.25v-24.375z"></path>
</symbol>

<symbol id="icon-plus" viewBox="0 0 32 32">
<path d="M13.567 30.087v-11.596h-11.51v-4.846h11.51v-11.51h4.904v11.51h11.51v4.846h-11.51v11.596h-4.904z"></path>
</symbol>

<symbol id="icon-up" viewBox="0 0 20 32">
<path fill="#fff" style="fill: var(--color1, #fff)" d="M8.96 30.72c0 0.707 0.573 1.28 1.28 1.28s1.28-0.573 1.28-1.28h-2.56zM11.145 0.375c-0.5-0.5-1.31-0.5-1.81 0l-8.146 8.146c-0.5 0.5-0.5 1.31 0 1.81s1.31 0.5 1.81 0l7.241-7.241 7.241 7.241c0.5 0.5 1.31 0.5 1.81 0s0.5-1.31 0-1.81l-8.146-8.146zM11.52 30.72v-29.44h-2.56v29.44h2.56z"></path>
</symbol>

<symbol id="icon-btn-close" viewBox="0 0 32 32">
<path fill="none" stroke="#fff" style="stroke: var(--color2, #fff)" stroke-linejoin="miter" stroke-linecap="butt" stroke-miterlimit="4"  d="M8 8l8 8M16 16l8 8M16 16l-8 8M16 16l8-8"></path>
</symbol>

<symbol id="icon-success-order" viewBox="0 0 32 32">
<path d="M16 31.5c-8.56 0-15.5-6.94-15.5-15.5s6.94-15.5 15.5-15.5c8.56 0 15.5 6.94 15.5 15.5s-6.94 15.5-15.5 15.5zM16 32c8.837 0 16-7.163 16-16s-7.163-16-16-16c-8.837 0-16 7.163-16 16s7.163 16 16 16z"></path>
<path d="M23.811 11.12c0.221 0.184 0.252 0.514 0.070 0.737l-8.123 9.952c-0.098 0.121-0.245 0.191-0.4 0.191s-0.302-0.070-0.4-0.191l-4.84-5.936c-0.182-0.223-0.15-0.553 0.071-0.737s0.548-0.152 0.73 0.071l4.439 5.446 7.723-9.462c0.182-0.223 0.509-0.255 0.73-0.071z"></path>
</symbol>

</defs>
</svg>
