<svg aria-hidden="true" style="position: absolute; width: 0; height: 0; overflow: hidden;" version="1.1" xmlns="http://www.w3.org/2000/svg" xmlns:xlink="http://www.w3.org/1999/xlink">
<defs>

<symbol id="icon-search" viewBox="0 0 31 32">
<path fill="#4c4b4b" style="fill: var(--color1, #4c4b4b)" d="M13.098 6.096c-4.234 0-7.667 3.432-7.667 7.667s3.432 7.667 7.667 7.667 7.667-3.433 7.667-7.667c0-4.234-3.432-7.667-7.667-7.667zM2.556 13.763c0-5.822 4.72-10.542 10.542-10.542s10.542 4.72 10.542 10.542c0 2.393-0.797 4.599-2.14 6.368l5.553 5.553c0.561 0.561 0.561 1.472 0 2.033s-1.471 0.561-2.033 0l-5.553-5.553c-1.769 1.343-3.976 2.14-6.368 2.14-5.822 0-10.542-4.72-10.542-10.542z"></path>
</symbol>

<symbol id="icon-cart" viewBox="0 0 32 32">
<path fill="none" stroke="#4c4b4b" style="stroke: var(--color1, #4c4b4b)" stroke-linejoin="miter" stroke-linecap="butt" stroke-miterlimit="10" stroke-width="2.9091" d="M8.364 9.815h12.364c0.964 0 1.889 0.383 2.571 1.065s1.065 1.607 1.065 2.571v14.545h-19.636v-14.545c0-0.964 0.383-1.889 1.065-2.571s1.607-1.065 2.571-1.065z"></path>
<path fill="none" stroke="#4c4b4b" style="stroke: var(--color1, #4c4b4b)" stroke-linejoin="miter" stroke-linecap="butt" stroke-miterlimit="10" stroke-width="2.9091" d="M14.182 1.091h0.727c1.35 0 2.645 0.536 3.6 1.491s1.491 2.25 1.491 3.6v3.636h-10.909v-3.636c0-1.35 0.536-2.645 1.491-3.6s2.25-1.491 3.6-1.491z"></path>
</symbol>

<symbol id="icon-burger-menu" viewBox="0 0 32 32">
<path fill="#4c4b4b" style="fill: var(--color1, #4c4b4b)" d="M4.222 25.333c-0.859 0-1.556-0.696-1.556-1.556s0.696-1.555 1.556-1.555h24.889c0.859 0 1.556 0.696 1.556 1.555s-0.696 1.556-1.556 1.556h-24.889zM4.222 17.556c-0.859 0-1.556-0.697-1.556-1.556s0.696-1.556 1.556-1.556h24.889c0.859 0 1.556 0.697 1.556 1.556s-0.696 1.556-1.556 1.556h-24.889zM4.222 9.778c-0.859 0-1.556-0.696-1.556-1.556s0.696-1.556 1.556-1.556h24.889c0.859 0 1.556 0.696 1.556 1.556s-0.696 1.556-1.556 1.556h-24.889z"></path>
</symbol>

<symbol id="icon-material-symbols_menu-sharp-1" viewBox="0 0 32 32">
<path fill="#c9c9c9" style="fill: var(--color1, #c9c9c9)" d="M4 24v-2.667h24v2.667h-24zM4 17.333v-2.667h24v2.667h-24zM4 10.667v-2.667h24v2.667h-24z"></path>
</symbol>

<symbol id="icon-cross" viewBox="0 0 32 32">
<path d="M31.708 25.708c-0-0-0-0-0-0l-9.708-9.708 9.708-9.708c0-0 0-0 0-0 0.105-0.105 0.18-0.227 0.229-0.357 0.133-0.356 0.057-0.771-0.229-1.057l-4.586-4.586c-0.286-0.286-0.702-0.361-1.057-0.229-0.13 0.048-0.252 0.124-0.357 0.228 0 0-0 0-0 0l-9.708 9.708-9.708-9.708c-0-0-0-0-0-0-0.105-0.104-0.227-0.18-0.357-0.228-0.356-0.133-0.771-0.057-1.057 0.229l-4.586 4.586c-0.286 0.286-0.361 0.702-0.229 1.057 0.049 0.13 0.124 0.252 0.229 0.357 0 0 0 0 0 0l9.708 9.708-9.708 9.708c-0 0-0 0-0 0-0.104 0.105-0.18 0.227-0.229 0.357-0.133 0.355-0.057 0.771 0.229 1.057l4.586 4.586c0.286 0.286 0.702 0.361 1.057 0.229 0.13-0.049 0.252-0.124 0.357-0.229 0-0 0-0 0-0l9.708-9.708 9.708 9.708c0 0 0 0 0 0 0.105 0.105 0.227 0.18 0.357 0.229 0.356 0.133 0.771 0.057 1.057-0.229l4.586-4.586c0.286-0.286 0.362-0.702 0.229-1.057-0.049-0.13-0.124-0.252-0.229-0.357z"></path>
</symbol>

<symbol id="icon-next" viewBox="0 0 62 32">
<path fill="#4c4b4b" style="fill: var(--color1, #4c4b4b)" d="M61.414 17.414c0.781-0.781 0.781-2.047 0-2.828l-12.728-12.728c-0.781-0.781-2.047-0.781-2.828 0s-0.781 2.047 0 2.828l11.314 11.314-11.314 11.314c-0.781 0.781-0.781 2.047 0 2.828s2.047 0.781 2.828 0l12.728-12.728zM0 18h60v-4h-60v4z"></path>
</symbol>

<symbol id="icon-prev" viewBox="0 0 62 32">
<path fill="#4c4b4b" style="fill: var(--color1, #4c4b4b)" d="M0.586 14.586c-0.781 0.781-0.781 2.047 0 2.828l12.728 12.728c0.781 0.781 2.047 0.781 2.828 0s0.781-2.047 0-2.828l-11.314-11.314 11.314-11.314c0.781-0.781 0.781-2.047 0-2.828s-2.047-0.781-2.828 0l-12.728 12.728zM62 14h-60v4h60v-4z"></path>
</symbol>

<symbol id="icon-image" viewBox="0 0 32 32">
<path fill="#fff" style="fill:var(--color1, #fff)" d="M1.5 32h29c.827 0 1.5-.673 1.5-1.5v-29c0-.827-.673-1.5-1.5-1.5h-29C.673 0 0 .673 0 1.5v29c0 .827.673 1.5 1.5 1.5zM1 1.5a.498.498 0 0 1 .5-.5h29a.498.498 0 0 1 .5.5v29a.498.498 0 0 1-.5.5h-29a.498.498 0 0 1-.5-.5v-29z"/><path fill="#fff" style="fill:var(--color1, #fff)" d="M20.5 12.5c1.103 0 2-.897 2-2s-.897-2-2-2-2 .897-2 2 .897 2 2 2zm0-3a.998.998 0 0 1 .982 1.196 1.002 1.002 0 1 1-.983-1.195z"/><path fill="#fff" style="fill:var(--color1, #fff)" d="M4.5 25h23a.498.498 0 0 0 .5-.5v-20a.498.498 0 0 0-.5-.5h-23a.498.498 0 0 0-.5.5v20a.498.498 0 0 0 .5.5zm.5-1v-5.638c.022-.016.047-.025.067-.045l5.116-5.116a.704.704 0 0 1 .972 0l7.521 7.521a.495.495 0 0 0 .699.008l3.866-3.672a.687.687 0 0 1 .958-.015l2.803 3.053V24H5.001zM27 5v13.618l-2.081-2.266a1.673 1.673 0 0 0-1.191-.495h-.001a1.656 1.656 0 0 0-1.185.486l-3.504 3.328-7.176-7.177c-.639-.638-1.749-.637-2.386 0L5 16.971V5h22z"/>
</symbol>

<symbol id="icon-next-page" viewBox="0 0 17 32">
<path fill="none" stroke="#939393" style="stroke: var(--color1, #939393)" stroke-linejoin="miter" stroke-linecap="butt" stroke-miterlimit="4" stroke-width="2.4615" d="M2.462 29.538l12.308-13.538-12.308-13.538"></path>
</symbol>

</defs>
</svg>
