<svg aria-hidden="true" style="position: absolute; width: 0; height: 0; overflow: hidden;" version="1.1" xmlns="http://www.w3.org/2000/svg" xmlns:xlink="http://www.w3.org/1999/xlink">
<defs>

<symbol id="icon-search" viewBox="0 0 31 32">
<path d="M13.098 6.096c-4.234 0-7.667 3.432-7.667 7.667s3.432 7.667 7.667 7.667 7.667-3.433 7.667-7.667c0-4.234-3.432-7.667-7.667-7.667zM2.556 13.763c0-5.822 4.72-10.542 10.542-10.542s10.542 4.72 10.542 10.542c0 2.393-0.797 4.599-2.14 6.368l5.553 5.553c0.561 0.561 0.561 1.472 0 2.033s-1.471 0.561-2.033 0l-5.553-5.553c-1.769 1.343-3.976 2.14-6.368 2.14-5.822 0-10.542-4.72-10.542-10.542z"></path>
</symbol>

<symbol id="icon-cart" viewBox="0 0 32 32">
<path fill="none" stroke="#4c4b4b" style="stroke: var(--color1, #4c4b4b)" stroke-linejoin="miter" stroke-linecap="butt" stroke-miterlimit="10" stroke-width="2.9091" d="M8.364 9.815h12.364c0.964 0 1.889 0.383 2.571 1.065s1.065 1.607 1.065 2.571v14.545h-19.636v-14.545c0-0.964 0.383-1.889 1.065-2.571s1.607-1.065 2.571-1.065z"></path>
<path fill="none" stroke="#4c4b4b" style="stroke: var(--color1, #4c4b4b)" stroke-linejoin="miter" stroke-linecap="butt" stroke-miterlimit="10" stroke-width="2.9091" d="M14.182 1.091h0.727c1.35 0 2.645 0.536 3.6 1.491s1.491 2.25 1.491 3.6v3.636h-10.909v-3.636c0-1.35 0.536-2.645 1.491-3.6s2.25-1.491 3.6-1.491z"></path>
</symbol>

<symbol id="icon-burger-menu" viewBox="0 0 32 32">
<path fill="#4c4b4b" style="fill: var(--color1, #4c4b4b)" d="M4.222 25.333c-0.859 0-1.556-0.696-1.556-1.556s0.696-1.555 1.556-1.555h24.889c0.859 0 1.556 0.696 1.556 1.555s-0.696 1.556-1.556 1.556h-24.889zM4.222 17.556c-0.859 0-1.556-0.697-1.556-1.556s0.696-1.556 1.556-1.556h24.889c0.859 0 1.556 0.697 1.556 1.556s-0.696 1.556-1.556 1.556h-24.889zM4.222 9.778c-0.859 0-1.556-0.696-1.556-1.556s0.696-1.556 1.556-1.556h24.889c0.859 0 1.556 0.696 1.556 1.556s-0.696 1.556-1.556 1.556h-24.889z"></path>
</symbol>

<symbol id="icon-material-symbols_menu-sharp-1" viewBox="0 0 32 32">
<path fill="#c9c9c9" style="fill: var(--color1, #c9c9c9)" d="M4 24v-2.667h24v2.667h-24zM4 17.333v-2.667h24v2.667h-24zM4 10.667v-2.667h24v2.667h-24z"></path>
</symbol>

<symbol id="icon-cross" viewBox="0 0 32 32">
<path d="M6.555 5.697c-0.484-0.484-1.269-0.484-1.754 0s-0.484 1.269 0 1.754l8.33 8.33-8.769 8.769c-0.484 0.484-0.484 1.269 0 1.754s1.269 0.484 1.754 0l8.769-8.769 8.331 8.331c0.484 0.484 1.269 0.484 1.754 0s0.484-1.27 0-1.754l-8.33-8.33 7.892-7.892c0.484-0.484 0.484-1.269 0-1.754s-1.27-0.484-1.754 0l-7.892 7.892-8.33-8.33z"></path>
</symbol>

<symbol id="icon-cross2" viewBox="0 0 32 32">
<path d="M31.708 25.708c-0-0-0-0-0-0l-9.708-9.708 9.708-9.708c0-0 0-0 0-0 0.105-0.105 0.18-0.227 0.229-0.357 0.133-0.356 0.057-0.771-0.229-1.057l-4.586-4.586c-0.286-0.286-0.702-0.361-1.057-0.229-0.13 0.048-0.252 0.124-0.357 0.228 0 0-0 0-0 0l-9.708 9.708-9.708-9.708c-0-0-0-0-0-0-0.105-0.104-0.227-0.18-0.357-0.228-0.356-0.133-0.771-0.057-1.057 0.229l-4.586 4.586c-0.286 0.286-0.361 0.702-0.229 1.057 0.049 0.13 0.124 0.252 0.229 0.357 0 0 0 0 0 0l9.708 9.708-9.708 9.708c-0 0-0 0-0 0-0.104 0.105-0.18 0.227-0.229 0.357-0.133 0.355-0.057 0.771 0.229 1.057l4.586 4.586c0.286 0.286 0.702 0.361 1.057 0.229 0.13-0.049 0.252-0.124 0.357-0.229 0-0 0-0 0-0l9.708-9.708 9.708 9.708c0 0 0 0 0 0 0.105 0.105 0.227 0.18 0.357 0.229 0.356 0.133 0.771 0.057 1.057-0.229l4.586-4.586c0.286-0.286 0.362-0.702 0.229-1.057-0.049-0.13-0.124-0.252-0.229-0.357z"></path>
</symbol>

<symbol id="icon-next" viewBox="0 0 62 32">
<path fill="#4c4b4b" style="fill: var(--color1, #4c4b4b)" d="M61.414 17.414c0.781-0.781 0.781-2.047 0-2.828l-12.728-12.728c-0.781-0.781-2.047-0.781-2.828 0s-0.781 2.047 0 2.828l11.314 11.314-11.314 11.314c-0.781 0.781-0.781 2.047 0 2.828s2.047 0.781 2.828 0l12.728-12.728zM0 18h60v-4h-60v4z"></path>
</symbol>

<symbol id="icon-prev" viewBox="0 0 62 32">
<path fill="#4c4b4b" style="fill: var(--color1, #4c4b4b)" d="M0.586 14.586c-0.781 0.781-0.781 2.047 0 2.828l12.728 12.728c0.781 0.781 2.047 0.781 2.828 0s0.781-2.047 0-2.828l-11.314-11.314 11.314-11.314c0.781-0.781 0.781-2.047 0-2.828s-2.047-0.781-2.828 0l-12.728 12.728zM62 14h-60v4h60v-4z"></path>
</symbol>


<symbol id="icon-next-page" viewBox="0 0 32 32">
<path fill="#9d9a97" style="fill: var(--color1, #9d9a97)" d="M12.178 9.506c-0.114 0.113-0.178 0.264-0.178 0.422s0.064 0.309 0.178 0.422l6.378 6.317-6.378 6.315c-0.114 0.113-0.178 0.264-0.178 0.422s0.064 0.309 0.178 0.422c0.056 0.055 0.122 0.099 0.195 0.129s0.152 0.045 0.232 0.045c0.080 0 0.158-0.015 0.232-0.045s0.14-0.074 0.195-0.129l6.783-6.719c0.119-0.118 0.186-0.276 0.186-0.441s-0.067-0.323-0.186-0.441l-6.783-6.719c-0.056-0.055-0.122-0.099-0.195-0.129s-0.152-0.045-0.232-0.045c-0.080 0-0.158 0.015-0.232 0.045s-0.14 0.074-0.195 0.129v-0.001z"></path>
</symbol>

<symbol id="icon-prev-page" viewBox="0 0 32 32">
<path fill="#9d9a97" style="fill: var(--color1, #9d9a97)" d="M19.822 9.506c0.114 0.113 0.178 0.264 0.178 0.422s-0.064 0.309-0.178 0.422l-6.378 6.317 6.378 6.315c0.114 0.113 0.178 0.264 0.178 0.422s-0.064 0.309-0.178 0.422c-0.055 0.055-0.122 0.099-0.195 0.129s-0.152 0.045-0.232 0.045c-0.079 0-0.158-0.015-0.232-0.045s-0.14-0.074-0.195-0.129l-6.783-6.719c-0.119-0.118-0.186-0.276-0.186-0.441s0.067-0.323 0.186-0.441l6.783-6.719c0.055-0.055 0.122-0.099 0.195-0.129s0.152-0.045 0.232-0.045c0.080 0 0.158 0.015 0.232 0.045s0.14 0.074 0.195 0.129v-0.001z"></path>
</symbol>

<symbol id="icon-fe_facebook" viewBox="0 0 32 32">
<path d="M20.967 29.333v-10.327h3.467l0.519-4.024h-3.987v-2.569c0-1.165 0.324-1.96 1.996-1.96h2.131v-3.6c-1.032-0.11-2.069-0.163-3.107-0.16-3.072 0-5.175 1.876-5.175 5.32v2.969h-3.477v4.024h3.476v10.327h-12.671c-0.813 0-1.472-0.659-1.472-1.472v-23.723c0-0.813 0.659-1.472 1.472-1.472h23.723c0.813 0 1.472 0.659 1.472 1.472v23.723c0 0.813-0.659 1.472-1.472 1.472h-6.895z"></path>
</symbol>

<symbol id="icon-circum_instagram" viewBox="0 0 32 32">
<path d="M24.582 27.917h-17.165c-0.884 0-1.732-0.351-2.357-0.976s-0.976-1.473-0.976-2.357v-17.165c0-0.884 0.351-1.732 0.976-2.357s1.473-0.976 2.357-0.976h17.165c0.884 0 1.732 0.351 2.357 0.976s0.976 1.473 0.976 2.357v17.165c0 0.884-0.351 1.732-0.976 2.357s-1.473 0.976-2.357 0.976zM7.417 5.418c-0.53 0-1.039 0.211-1.414 0.586s-0.586 0.884-0.586 1.414v17.165c0 0.53 0.211 1.039 0.586 1.414s0.884 0.586 1.414 0.586h17.165c0.53 0 1.039-0.211 1.414-0.586s0.586-0.884 0.586-1.414v-17.165c0-0.53-0.211-1.039-0.586-1.414s-0.884-0.586-1.414-0.586h-17.165z"></path>
<path d="M15.999 22.126c-1.211-0.001-2.395-0.362-3.402-1.036s-1.791-1.632-2.254-2.751-0.583-2.351-0.346-3.539c0.237-1.188 0.821-2.279 1.679-3.135s1.949-1.439 3.137-1.675 2.42-0.114 3.539 0.35c1.119 0.464 2.075 1.25 2.748 2.257s1.032 2.192 1.031 3.404c-0.002 1.625-0.649 3.183-1.799 4.332s-2.709 1.794-4.334 1.794zM15.999 11.201c-0.947 0.001-1.873 0.283-2.66 0.811s-1.401 1.276-1.762 2.152c-0.362 0.876-0.456 1.839-0.271 2.768s0.642 1.783 1.311 2.453c0.67 0.67 1.524 1.126 2.453 1.311s1.892 0.091 2.768-0.271c0.876-0.362 1.624-0.975 2.152-1.763s0.809-1.713 0.811-2.66c0-1.273-0.506-2.494-1.406-3.394s-2.121-1.406-3.394-1.406z"></path>
<path d="M22.933 10.541c0.792 0 1.433-0.642 1.433-1.433s-0.642-1.433-1.433-1.433c-0.792 0-1.433 0.642-1.433 1.433s0.642 1.433 1.433 1.433z"></path>
</symbol>

<symbol id="icon-vector-13" viewBox="0 0 54 32">
<path stroke-linejoin="miter" stroke-linecap="butt" stroke-miterlimit="4" stroke-width="3.2" d="M3.2 3.2l24 25.6 24-25.6"></path>
</symbol>

<symbol id="icon-minus" viewBox="0 0 75 32">
<path d="M4.917 5.792h62.25v24.375h-62.25v-24.375z"></path>
</symbol>

<symbol id="icon-plus" viewBox="0 0 32 32">
<path d="M13.567 30.087v-11.596h-11.51v-4.846h11.51v-11.51h4.904v11.51h11.51v4.846h-11.51v11.596h-4.904z"></path>
</symbol>

<symbol id="icon-up" viewBox="0 0 20 32">
<path fill="#fff" style="fill: var(--color1, #fff)" d="M8.96 30.72c0 0.707 0.573 1.28 1.28 1.28s1.28-0.573 1.28-1.28h-2.56zM11.145 0.375c-0.5-0.5-1.31-0.5-1.81 0l-8.146 8.146c-0.5 0.5-0.5 1.31 0 1.81s1.31 0.5 1.81 0l7.241-7.241 7.241 7.241c0.5 0.5 1.31 0.5 1.81 0s0.5-1.31 0-1.81l-8.146-8.146zM11.52 30.72v-29.44h-2.56v29.44h2.56z"></path>
</symbol>

<symbol id="icon-btn-close" viewBox="0 0 32 32">
<path fill="none" stroke="#fff" style="stroke: var(--color2, #fff)" stroke-linejoin="miter" stroke-linecap="butt" stroke-miterlimit="4"  d="M8 8l8 8M16 16l8 8M16 16l-8 8M16 16l8-8"></path>
</symbol>

<symbol id="icon-success-order" viewBox="0 0 32 32">
<path d="M16 31.5c-8.56 0-15.5-6.94-15.5-15.5s6.94-15.5 15.5-15.5c8.56 0 15.5 6.94 15.5 15.5s-6.94 15.5-15.5 15.5zM16 32c8.837 0 16-7.163 16-16s-7.163-16-16-16c-8.837 0-16 7.163-16 16s7.163 16 16 16z"></path>
<path d="M23.811 11.12c0.221 0.184 0.252 0.514 0.070 0.737l-8.123 9.952c-0.098 0.121-0.245 0.191-0.4 0.191s-0.302-0.070-0.4-0.191l-4.84-5.936c-0.182-0.223-0.15-0.553 0.071-0.737s0.548-0.152 0.73 0.071l4.439 5.446 7.723-9.462c0.182-0.223 0.509-0.255 0.73-0.071z"></path>
</symbol>

</defs>
</svg>
