<svg aria-hidden="true" style="position: absolute; width: 0; height: 0; overflow: hidden;" version="1.1" xmlns="http://www.w3.org/2000/svg" xmlns:xlink="http://www.w3.org/1999/xlink">
<defs>

<symbol id="icon-search" viewBox="0 0 32 32">
<path d="M13.2 3.6c-5.302 0-9.6 4.298-9.6 9.6s4.298 9.6 9.6 9.6c5.302 0 9.6-4.298 9.6-9.6s-4.298-9.6-9.6-9.6zM0 13.2c0-7.29 5.91-13.2 13.2-13.2s13.2 5.91 13.2 13.2c0 2.996-0.998 5.759-2.68 7.974l6.953 6.953c0.703 0.703 0.703 1.843 0 2.546s-1.843 0.703-2.546 0l-6.953-6.953c-2.215 1.682-4.978 2.68-7.974 2.68-7.29 0-13.2-5.91-13.2-13.2z"></path>
</symbol>

<!-- <symbol id="icon-cart" viewBox="0 0 26 32">
<path d="M3.2 32c-0.88 0-1.633-0.313-2.26-0.94s-0.94-1.38-0.94-2.26v-19.2c0-0.88 0.313-1.633 0.94-2.26s1.38-0.94 2.26-0.94h3.2c0-1.76 0.627-3.267 1.88-4.52s2.76-1.88 4.52-1.88c1.76 0 3.267 0.627 4.52 1.88s1.88 2.76 1.88 4.52h3.2c0.88 0 1.633 0.313 2.26 0.94s0.94 1.38 0.94 2.26v19.2c0 0.88-0.313 1.633-0.94 2.26s-1.38 0.94-2.26 0.94h-19.2zM3.2 28.8h19.2v-19.2h-3.2v3.2c0 0.453-0.153 0.833-0.46 1.14s-0.687 0.46-1.14 0.46c-0.453 0-0.833-0.153-1.14-0.46s-0.46-0.687-0.46-1.14v-3.2h-6.4v3.2c0 0.453-0.153 0.833-0.46 1.14s-0.687 0.46-1.14 0.46c-0.453 0-0.833-0.153-1.14-0.46s-0.46-0.687-0.46-1.14v-3.2h-3.2v19.2zM9.6 6.4h6.4c0-0.88-0.313-1.633-0.94-2.26s-1.38-0.94-2.26-0.94c-0.88 0-1.633 0.313-2.26 0.94s-0.94 1.38-0.94 2.26z"></path>
</symbol> -->

<symbol id="icon-cart" viewBox="0 0 26 32">
<path d="M3.2 32c-0.88 0-1.633-0.313-2.26-0.94s-0.94-1.38-0.94-2.26v-19.2c0-0.88 0.313-1.633 0.94-2.26s1.38-0.94 2.26-0.94h3.2c0-1.76 0.627-3.267 1.88-4.52s2.76-1.88 4.52-1.88c1.76 0 3.267 0.627 4.52 1.88s1.88 2.76 1.88 4.52h3.2c0.88 0 1.633 0.313 2.26 0.94s0.94 1.38 0.94 2.26v19.2c0 0.88-0.313 1.633-0.94 2.26s-1.38 0.94-2.26 0.94h-19.2zM3.2 28.8h19.2v-19.2h-3.2v3.2c0 0.453-0.153 0.833-0.46 1.14s-0.687 0.46-1.14 0.46c-0.453 0-0.833-0.153-1.14-0.46s-0.46-0.687-0.46-1.14v-3.2h-6.4v3.2c0 0.453-0.153 0.833-0.46 1.14s-0.687 0.46-1.14 0.46c-0.453 0-0.833-0.153-1.14-0.46s-0.46-0.687-0.46-1.14v-3.2h-3.2v19.2zM9.6 6.4h6.4c0-0.88-0.313-1.633-0.94-2.26s-1.38-0.94-2.26-0.94c-0.88 0-1.633 0.313-2.26 0.94s-0.94 1.38-0.94 2.26z"></path>
</symbol>

<!-- <symbol id="icon-burger-menu" viewBox="0 0 32 32">
<path d="M3.969 7.966c0-0.736 0.597-1.333 1.333-1.333h21.333c0.736 0 1.333 0.597 1.333 1.333s-0.597 1.333-1.333 1.333h-21.333c-0.736 0-1.333-0.597-1.333-1.333zM3.969 15.966c0-0.736 0.597-1.333 1.333-1.333h21.333c0.736 0 1.333 0.597 1.333 1.333s-0.597 1.333-1.333 1.333h-21.333c-0.736 0-1.333-0.597-1.333-1.333zM3.969 23.966c0-0.736 0.597-1.333 1.333-1.333h21.333c0.736 0 1.333 0.597 1.333 1.333s-0.597 1.333-1.333 1.333h-21.333c-0.736 0-1.333-0.597-1.333-1.333z"></path>
</symbol> -->

<symbol id="icon-burger-menu" viewBox="0 0 41 32">
<path d="M2.083 4.213c0-1.178 0.955-2.133 2.133-2.133h34.133c1.178 0 2.133 0.955 2.133 2.133s-0.955 2.133-2.133 2.133h-34.133c-1.178 0-2.133-0.955-2.133-2.133zM2.083 17.012c0-1.178 0.955-2.133 2.133-2.133h34.133c1.178 0 2.133 0.955 2.133 2.133s-0.955 2.133-2.133 2.133h-34.133c-1.178 0-2.133-0.955-2.133-2.133zM2.083 29.812c0-1.178 0.955-2.133 2.133-2.133h34.133c1.178 0 2.133 0.955 2.133 2.133s-0.955 2.133-2.133 2.133h-34.133c-1.178 0-2.133-0.955-2.133-2.133z"></path>
</symbol>

<symbol id="icon-material-symbols_menu-sharp-1" viewBox="0 0 32 32">
<path fill="#c9c9c9" style="fill: var(--color1, #c9c9c9)" d="M4 24v-2.667h24v2.667h-24zM4 17.333v-2.667h24v2.667h-24zM4 10.667v-2.667h24v2.667h-24z"></path>
</symbol>

<symbol id="icon-cross1" viewBox="0 0 32 32">
<path d="M6.555 5.697c-0.484-0.484-1.269-0.484-1.754 0s-0.484 1.269 0 1.754l8.33 8.33-8.769 8.769c-0.484 0.484-0.484 1.269 0 1.754s1.269 0.484 1.754 0l8.769-8.769 8.331 8.331c0.484 0.484 1.269 0.484 1.754 0s0.484-1.27 0-1.754l-8.33-8.33 7.892-7.892c0.484-0.484 0.484-1.269 0-1.754s-1.27-0.484-1.754 0l-7.892 7.892-8.33-8.33z"></path>
</symbol>

<symbol id="icon-cross" viewBox="0 0 32 32">
<path d="M6.97 6.97c0.405-0.405 1.062-0.405 1.467 0l7.563 7.563 7.563-7.563c0.405-0.405 1.062-0.405 1.467 0s0.405 1.062 0 1.467l-7.563 7.563 7.563 7.563c0.405 0.405 0.405 1.062 0 1.467s-1.062 0.405-1.467 0l-7.563-7.563-7.563 7.563c-0.405 0.405-1.062 0.405-1.467 0s-0.405-1.062 0-1.467l7.563-7.563-7.563-7.563c-0.405-0.405-0.405-1.062 0-1.467z"></path>
</symbol>

<symbol id="icon-next" viewBox="0 0 62 32">
<path fill="#4c4b4b" style="fill: var(--color1, #4c4b4b)" d="M61.414 17.414c0.781-0.781 0.781-2.047 0-2.828l-12.728-12.728c-0.781-0.781-2.047-0.781-2.828 0s-0.781 2.047 0 2.828l11.314 11.314-11.314 11.314c-0.781 0.781-0.781 2.047 0 2.828s2.047 0.781 2.828 0l12.728-12.728zM0 18h60v-4h-60v4z"></path>
</symbol>

<symbol id="icon-prev" viewBox="0 0 62 32">
<path fill="#4c4b4b" style="fill: var(--color1, #4c4b4b)" d="M0.586 14.586c-0.781 0.781-0.781 2.047 0 2.828l12.728 12.728c0.781 0.781 2.047 0.781 2.828 0s0.781-2.047 0-2.828l-11.314-11.314 11.314-11.314c0.781-0.781 0.781-2.047 0-2.828s-2.047-0.781-2.828 0l-12.728 12.728zM62 14h-60v4h60v-4z"></path>
</symbol>


<symbol id="icon-next-page" viewBox="0 0 32 32">
<path fill="#9d9a97" style="fill: var(--color1, #9d9a97)" d="M12.178 9.506c-0.114 0.113-0.178 0.264-0.178 0.422s0.064 0.309 0.178 0.422l6.378 6.317-6.378 6.315c-0.114 0.113-0.178 0.264-0.178 0.422s0.064 0.309 0.178 0.422c0.056 0.055 0.122 0.099 0.195 0.129s0.152 0.045 0.232 0.045c0.080 0 0.158-0.015 0.232-0.045s0.14-0.074 0.195-0.129l6.783-6.719c0.119-0.118 0.186-0.276 0.186-0.441s-0.067-0.323-0.186-0.441l-6.783-6.719c-0.056-0.055-0.122-0.099-0.195-0.129s-0.152-0.045-0.232-0.045c-0.080 0-0.158 0.015-0.232 0.045s-0.14 0.074-0.195 0.129v-0.001z"></path>
</symbol>

<symbol id="icon-prev-page" viewBox="0 0 32 32">
<path fill="#9d9a97" style="fill: var(--color1, #9d9a97)" d="M19.822 9.506c0.114 0.113 0.178 0.264 0.178 0.422s-0.064 0.309-0.178 0.422l-6.378 6.317 6.378 6.315c0.114 0.113 0.178 0.264 0.178 0.422s-0.064 0.309-0.178 0.422c-0.055 0.055-0.122 0.099-0.195 0.129s-0.152 0.045-0.232 0.045c-0.079 0-0.158-0.015-0.232-0.045s-0.14-0.074-0.195-0.129l-6.783-6.719c-0.119-0.118-0.186-0.276-0.186-0.441s0.067-0.323 0.186-0.441l6.783-6.719c0.055-0.055 0.122-0.099 0.195-0.129s0.152-0.045 0.232-0.045c0.080 0 0.158 0.015 0.232 0.045s0.14 0.074 0.195 0.129v-0.001z"></path>
</symbol>

<symbol id="icon-fe_facebook" viewBox="0 0 32 32">
<path d="M18.853 30.667v-13.38h4.324l0.648-5.214h-4.971v-3.329c0-1.511 0.402-2.539 2.487-2.539l2.659-0.001v-4.664c-1.287-0.141-2.58-0.21-3.874-0.205-3.834 0-6.458 2.43-6.458 6.893v3.846h-4.335v5.214h4.335v13.38h5.184z"></path>
</symbol>


<symbol id="icon-circum_instagram" viewBox="0 0 32 32">
<path d="M24.582 27.917h-17.165c-0.884 0-1.732-0.351-2.357-0.976s-0.976-1.473-0.976-2.357v-17.165c0-0.884 0.351-1.732 0.976-2.357s1.473-0.976 2.357-0.976h17.165c0.884 0 1.732 0.351 2.357 0.976s0.976 1.473 0.976 2.357v17.165c0 0.884-0.351 1.732-0.976 2.357s-1.473 0.976-2.357 0.976zM7.417 5.418c-0.53 0-1.039 0.211-1.414 0.586s-0.586 0.884-0.586 1.414v17.165c0 0.53 0.211 1.039 0.586 1.414s0.884 0.586 1.414 0.586h17.165c0.53 0 1.039-0.211 1.414-0.586s0.586-0.884 0.586-1.414v-17.165c0-0.53-0.211-1.039-0.586-1.414s-0.884-0.586-1.414-0.586h-17.165z"></path>
<path d="M15.999 22.126c-1.211-0.001-2.395-0.362-3.402-1.036s-1.791-1.632-2.254-2.751-0.583-2.351-0.346-3.539c0.237-1.188 0.821-2.279 1.679-3.135s1.949-1.439 3.137-1.675 2.42-0.114 3.539 0.35c1.119 0.464 2.075 1.25 2.748 2.257s1.032 2.192 1.031 3.404c-0.002 1.625-0.649 3.183-1.799 4.332s-2.709 1.794-4.334 1.794zM15.999 11.201c-0.947 0.001-1.873 0.283-2.66 0.811s-1.401 1.276-1.762 2.152c-0.362 0.876-0.456 1.839-0.271 2.768s0.642 1.783 1.311 2.453c0.67 0.67 1.524 1.126 2.453 1.311s1.892 0.091 2.768-0.271c0.876-0.362 1.624-0.975 2.152-1.763s0.809-1.713 0.811-2.66c0-1.273-0.506-2.494-1.406-3.394s-2.121-1.406-3.394-1.406z"></path>
<path d="M22.933 10.541c0.792 0 1.433-0.642 1.433-1.433s-0.642-1.433-1.433-1.433c-0.792 0-1.433 0.642-1.433 1.433s0.642 1.433 1.433 1.433z"></path>
</symbol>


<symbol id="icon-instagram" viewBox="0 0 32 32">
<path d="M8.552 3.81c-1.257 0-2.462 0.499-3.35 1.388s-1.388 2.094-1.388 3.35c0 0.024-0.001 0.048-0.002 0.072v15.612c0 1.257 0.499 2.462 1.388 3.351s2.094 1.388 3.35 1.388h15.687c1.257 0 2.462-0.499 3.35-1.388s1.388-2.094 1.388-3.351v-15.685c0-0.622-0.123-1.238-0.361-1.813s-0.587-1.097-1.027-1.537c-0.44-0.44-0.962-0.789-1.537-1.027s-1.191-0.361-1.813-0.361h-15.685zM1.529 8.466c0.021-1.833 0.759-3.587 2.057-4.885 1.317-1.317 3.104-2.057 4.967-2.057h15.685c0.922 0 1.836 0.182 2.688 0.535s1.627 0.87 2.279 1.523 1.17 1.427 1.523 2.279c0.353 0.852 0.535 1.766 0.535 2.688v15.685c0 1.863-0.74 3.649-2.057 4.967s-3.104 2.057-4.967 2.057h-15.687c-1.863 0-3.649-0.74-4.967-2.057s-2.057-3.104-2.057-4.967v-15.687c0-0.027 0.001-0.053 0.003-0.080zM24.328 9.035c0.152 0 0.297-0.060 0.404-0.167s0.167-0.252 0.167-0.404c0-0.152-0.060-0.297-0.167-0.404s-0.253-0.167-0.404-0.167c-0.151 0-0.297 0.060-0.404 0.167s-0.167 0.252-0.167 0.404c0 0.152 0.060 0.297 0.167 0.404s0.253 0.167 0.404 0.167zM23.116 7.251c0.321-0.322 0.758-0.502 1.212-0.502s0.891 0.181 1.212 0.502 0.502 0.758 0.502 1.212c0 0.455-0.181 0.891-0.502 1.212s-0.758 0.502-1.212 0.502c-0.455 0-0.891-0.181-1.212-0.502s-0.502-0.758-0.502-1.212c0-0.455 0.181-0.891 0.502-1.212zM11.465 11.46c1.307-1.307 3.081-2.042 4.93-2.042s3.622 0.735 4.929 2.042c1.307 1.307 2.042 3.081 2.042 4.93 0 0.916-0.18 1.822-0.531 2.668s-0.864 1.614-1.511 2.262-1.416 1.161-2.262 1.511c-0.846 0.35-1.752 0.531-2.668 0.531s-1.822-0.18-2.668-0.531c-0.846-0.35-1.614-0.864-2.262-1.511s-1.161-1.416-1.511-2.262c-0.35-0.846-0.531-1.752-0.531-2.668 0-1.849 0.735-3.622 2.042-4.93zM16.395 11.704c-1.243 0-2.435 0.494-3.313 1.372s-1.372 2.071-1.372 3.313c0 0.615 0.121 1.225 0.357 1.793s0.581 1.085 1.016 1.52c0.435 0.435 0.952 0.78 1.52 1.016s1.178 0.357 1.793 0.357c0.615 0 1.225-0.121 1.793-0.357s1.085-0.581 1.52-1.016c0.435-0.435 0.78-0.952 1.016-1.52s0.357-1.178 0.357-1.793c0-1.243-0.494-2.435-1.372-3.313s-2.071-1.372-3.313-1.372z"></path>
</symbol>

<symbol id="icon-vector-13" viewBox="0 0 54 32">
<path stroke-linejoin="miter" stroke-linecap="butt" stroke-miterlimit="4" stroke-width="3.2" d="M3.2 3.2l24 25.6 24-25.6"></path>
</symbol>
<symbol id="icon-vector-14" viewBox="0 0 59 32">
<path stroke-linejoin="round" stroke-linecap="round" stroke-miterlimit="4" stroke-width="2.6667" d="M56 29.333l-26.667-26.667-26.667 26.667"></path>
</symbol>

<symbol id="icon-minus" viewBox="0 0 75 32">
<path d="M4.917 5.792h62.25v24.375h-62.25v-24.375z"></path>
</symbol>

<symbol id="icon-plus" viewBox="0 0 32 32">
<path d="M13.567 30.087v-11.596h-11.51v-4.846h11.51v-11.51h4.904v11.51h11.51v4.846h-11.51v11.596h-4.904z"></path>
</symbol>

<symbol id="icon-up" viewBox="0 0 20 32">
<path fill="#fff" style="fill: var(--color1, #fff)" d="M8.96 30.72c0 0.707 0.573 1.28 1.28 1.28s1.28-0.573 1.28-1.28h-2.56zM11.145 0.375c-0.5-0.5-1.31-0.5-1.81 0l-8.146 8.146c-0.5 0.5-0.5 1.31 0 1.81s1.31 0.5 1.81 0l7.241-7.241 7.241 7.241c0.5 0.5 1.31 0.5 1.81 0s0.5-1.31 0-1.81l-8.146-8.146zM11.52 30.72v-29.44h-2.56v29.44h2.56z"></path>
</symbol>

<symbol id="icon-btn-close" viewBox="0 0 32 32">
<path fill="none" stroke="#fff" style="stroke: var(--color2, #fff)" stroke-linejoin="miter" stroke-linecap="butt" stroke-miterlimit="4"  d="M8 8l8 8M16 16l8 8M16 16l-8 8M16 16l8-8"></path>
</symbol>

<symbol id="icon-success-order" viewBox="0 0 32 32">
<path d="M16 31.5c-8.56 0-15.5-6.94-15.5-15.5s6.94-15.5 15.5-15.5c8.56 0 15.5 6.94 15.5 15.5s-6.94 15.5-15.5 15.5zM16 32c8.837 0 16-7.163 16-16s-7.163-16-16-16c-8.837 0-16 7.163-16 16s7.163 16 16 16z"></path>
<path d="M23.811 11.12c0.221 0.184 0.252 0.514 0.070 0.737l-8.123 9.952c-0.098 0.121-0.245 0.191-0.4 0.191s-0.302-0.070-0.4-0.191l-4.84-5.936c-0.182-0.223-0.15-0.553 0.071-0.737s0.548-0.152 0.73 0.071l4.439 5.446 7.723-9.462c0.182-0.223 0.509-0.255 0.73-0.071z"></path>
</symbol>

</defs>
</svg>
